<?xml version="1.0" encoding="UTF-8" standalone="no"?>
<!-- Created with Inkscape (http://www.inkscape.org/) -->

<svg
   width="210mm"
   height="297mm"
   viewBox="0 0 210 297"
   version="1.1"
   id="svg1"
   xml:space="preserve"
   inkscape:version="1.3 (0e150ed6c4, 2023-07-21)"
   sodipodi:docname="stei.svg"
   xmlns:inkscape="http://www.inkscape.org/namespaces/inkscape"
   xmlns:sodipodi="http://sodipodi.sourceforge.net/DTD/sodipodi-0.dtd"
   xmlns="http://www.w3.org/2000/svg"
   xmlns:svg="http://www.w3.org/2000/svg"><sodipodi:namedview
     id="namedview1"
     pagecolor="#ffffff"
     bordercolor="#000000"
     borderopacity="0.25"
     inkscape:showpageshadow="2"
     inkscape:pageopacity="0.0"
     inkscape:pagecheckerboard="0"
     inkscape:deskcolor="#d1d1d1"
     inkscape:document-units="mm"
     inkscape:zoom="1.0242632"
     inkscape:cx="335.85117"
     inkscape:cy="494.50179"
     inkscape:window-width="1920"
     inkscape:window-height="1009"
     inkscape:window-x="-8"
     inkscape:window-y="-8"
     inkscape:window-maximized="1"
     inkscape:current-layer="layer1" /><defs
     id="defs1"><style
       type="text/css"
       id="style1">&#10;   <![CDATA[
    .str0 {stroke:#1674B8;stroke-width:2.41;stroke-miterlimit:2.61313}
    .fil0 {fill:#FEFEFE}
    .fil2 {fill:#FEFEFE;fill-rule:nonzero}
    .fil1 {fill:#00AFEF;fill-rule:nonzero}
   ]]>&#10;  </style></defs><g
     inkscape:label="Layer 1"
     inkscape:groupmode="layer"
     id="layer1"><g
       id="_2226659332416"
       style="clip-rule:evenodd;fill-rule:evenodd;image-rendering:optimizeQuality;shape-rendering:geometricPrecision;text-rendering:geometricPrecision;fill:#ff2a2a"
       transform="matrix(0.0254,0,0,0.0254,76.071305,96.308587)">&#10;   <path
   class="fil0"
   d="m 841.23,2765.45 c 27.62,0 49.94,-21.02 49.94,-49.94 0,-28.92 -22.35,-48.63 -49.94,-48.63 -27.55,0 -49.94,21.02 -49.94,48.63 0,27.62 22.35,49.94 49.94,49.94 z"
   id="path1"
   style="fill:#28255d;fill-opacity:1" />&#10;   <path
   class="fil0"
   d="m 544.13,2539.38 c 27.62,0 49.94,-21.02 49.94,-48.63 0,-27.62 -22.35,-49.94 -49.94,-49.94 -27.55,0 -49.94,22.35 -49.94,49.94 0,27.55 22.35,48.63 49.94,48.63 z"
   id="path2"
   style="fill:#28255d;fill-opacity:1" />&#10;   <path
   class="fil0"
   d="m 891.14,2022.84 c 27.62,0 49.94,-22.35 49.94,-49.94 0,-27.55 -22.35,-49.94 -49.94,-49.94 -27.55,0 -49.94,22.35 -49.94,49.94 0,27.55 22.35,49.94 49.94,49.94 z"
   id="path3-5"
   style="fill:#28255d;fill-opacity:1" />&#10;   <path
   class="fil0"
   d="m 494.24,1907.19 c 27.62,0 49.94,-22.35 49.94,-49.94 0,-27.55 -22.35,-49.94 -49.94,-49.94 -27.55,0 -49.94,22.35 -49.94,49.94 0,27.55 22.35,49.94 49.94,49.94 z"
   id="path4-2"
   style="fill:#28255d;fill-opacity:1" />&#10;   <path
   class="fil0"
   d="m 891.14,1874.3 c 53.91,0 98.54,44.7 98.54,98.54 0,53.86 -44.7,98.54 -98.54,98.54 -18.37,0 -34.18,-5.26 -49.94,-13.17 l -198.46,114.37 247.09,143.27 v 312.81 c 30.26,17.09 49.94,49.94 49.94,85.45 0,55.17 -44.7,99.9 -98.54,99.9 -53.86,0 -98.54,-44.7 -98.54,-99.9 0,-35.49 19.73,-68.36 49.94,-85.45 V 2372.37 L 545.54,2229.1 298.45,2372.37 v 285.19 l 198.46,115.65 v -197.16 c -31.54,-17.09 -51.27,-49.94 -51.27,-85.45 0,-55.2 44.73,-99.9 98.54,-99.9 53.86,0 98.54,44.7 98.54,99.9 0,35.49 -19.73,68.34 -49.94,85.45 v 253.66 l 247.09,141.99 247.09,-141.99 v -686.08 l 247.09,-141.99 -495.51,-286.53 -247.09,141.99 0.06,0.09 c 0,55.17 -43.37,98.54 -98.54,98.54 -55.17,0 -98.54,-43.37 -98.54,-98.54 0,-55.2 44.7,-98.54 98.54,-98.54 18.37,0 35.49,5.26 51.27,13.17 L 741.4,1657.45 542.94,1543.08 0.08,1858.52 v 286.53 l 247.09,141.99 544.16,-312.81 -0.06,-0.06 c 0,-53.91 44.7,-98.54 98.54,-98.54 h 0.06 l 1.3,-1.35 h -0.03 v 0.01 h -0.01 z"
   id="path5-5"
   style="fill:#28255d;fill-opacity:1" />&#10;   <path
   class="fil0 str0"
   d="m 247.13,893.78 c 27.62,0 48.63,22.35 48.63,49.94 0,27.55 -21.02,49.94 -48.63,49.94 -27.62,0 -49.94,-22.35 -49.94,-49.94 0,-27.55 21.02,-49.94 49.94,-49.94 z"
   id="path6-51"
   style="fill:#1674b9;stroke:#1674b8;stroke-width:2.41;stroke-miterlimit:2.61313;fill-opacity:1" />&#10;   <path
   class="fil0"
   d="m 1386.68,1393.24 c 27.62,0 49.94,-22.35 49.94,-49.94 0,-27.55 -22.35,-49.94 -49.94,-49.94 -27.55,0 -49.94,22.35 -49.94,49.94 0,27.55 22.35,49.94 49.94,49.94 z"
   id="path7-6"
   style="fill:#1674b9;fill-opacity:1" />&#10;   <path
   class="fil0"
   d="m 841.23,207.7 c 27.62,0 49.94,22.35 49.94,49.94 0,27.55 -22.35,49.94 -49.94,49.94 -27.55,0 -49.94,-22.35 -49.94,-49.94 0,-27.55 22.35,-49.94 49.94,-49.94 z"
   id="path8-4"
   style="fill:#1674b9;fill-opacity:1" />&#10;   <path
   class="fil0"
   d="m 544.13,433.77 c 27.62,0 49.94,22.35 49.94,49.94 0,27.55 -22.35,49.94 -49.94,49.94 -27.55,0 -49.94,-22.35 -49.94,-49.94 0,-27.55 22.35,-49.94 49.94,-49.94 z"
   id="path9"
   style="fill:#1674b9;fill-opacity:1" />&#10;   <path
   class="fil0"
   d="m 1682.38,1565.4 c 27.62,0 49.94,-22.35 49.94,-49.94 0,-27.55 -22.35,-49.94 -49.94,-49.94 -27.55,0 -49.94,22.35 -49.94,49.94 0,27.55 22.35,49.94 49.94,49.94 z"
   id="path10"
   style="fill:#1674b9;fill-opacity:1" />&#10;   <path
   class="fil0"
   d="m 841.23,159.05 c 53.91,0 98.54,44.7 98.54,98.54 0,35.49 -19.73,68.36 -49.94,85.45 v 314.17 l -347,201.1 L 247.09,686.12 0,829.39 v 570.45 l 198.46,-114.37 v -257.61 c -30.23,-15.81 -51.27,-48.63 -51.27,-85.45 0,-53.89 44.7,-98.54 99.9,-98.54 55.17,0 98.54,44.7 98.54,98.54 0,35.49 -19.73,68.34 -49.94,85.45 v 201.1 l 544.16,-314.14 396.91,228.72 -297.06,170.89 791.25,457.42 545.45,-312.81 v -228.72 l -495.51,286.53 h 0.06 c 0,53.89 -44.7,98.54 -98.54,98.54 -53.86,0 -98.54,-44.7 -98.54,-98.54 0,-53.86 44.7,-98.54 98.54,-98.54 18.37,0 35.49,5.26 49.94,11.83 l 198.46,-114.37 -198.46,-114.37 -247.09,141.99 -0.06,-0.06 c 0,53.89 -44.7,98.54 -98.54,98.54 -53.86,0 -98.54,-44.73 -98.54,-98.54 0,-53.86 44.7,-98.54 98.54,-98.54 17.09,0 34.18,5.26 49.94,13.17 L 1633.76,1143.59 1089.6,829.42 c -2.62,-227.36 0,-457.42 0,-687.44 L 842.51,-0.01 594.09,143.26 v 252.37 c 30.26,17.09 49.94,49.94 49.94,86.74 0,53.89 -44.7,98.54 -98.54,98.54 -53.86,0 -98.54,-44.7 -98.54,-98.54 0,-36.8 19.73,-69.64 51.27,-86.74 V 199.8 L 299.76,314.17 V 600.7 L 546.85,742.69 793.94,600.7 V 343.06 C 763.68,325.97 744,293.12 744,257.61 c 0,-53.89 44.7,-98.54 98.54,-98.54 v 0 h -1.3 l -0.01,-0.03 h 0.01 l -0.02,0.02 z"
   id="path11"
   style="fill:#1674b9;fill-opacity:1" />&#10;   <path
   class="fil0"
   d="m 1435.29,207.7 c -27.62,0 -49.94,22.35 -49.94,49.94 0,27.55 22.35,49.94 49.94,49.94 27.55,0 49.94,-22.35 49.94,-49.94 0,-27.55 -22.35,-49.94 -49.94,-49.94 z"
   id="path12"
   style="fill:#25a8e0;fill-opacity:1" />&#10;   <path
   class="fil0"
   d="m 1732.36,433.77 c -27.62,0 -49.94,22.35 -49.94,49.94 0,27.55 22.35,49.94 49.94,49.94 27.55,0 49.94,-22.35 49.94,-49.94 0,-27.55 -22.35,-49.94 -49.94,-49.94 z"
   id="path13"
   style="fill:#25a8e0;fill-opacity:1" />&#10;   <polygon
   class="fil0"
   points="2029.38,686.13 1830.93,801.76 2276.49,1058.1 2276.49,829.38 "
   id="polygon13"
   style="fill:#22a8e0;fill-opacity:1" />&#10;   <path
   class="fil0"
   d="m 1783.64,398.25 c 28.92,17.09 47.35,49.94 47.35,85.45 0,53.91 -43.37,98.54 -98.54,98.54 -55.17,0 -98.54,-44.7 -98.54,-98.54 0,-36.8 19.73,-69.64 49.94,-86.74 V 144.59 L 1435.37,0.02 1188.28,142.01 v 629.61 l 841.18,485 198.46,-114.37 -841.18,-486.33 V 341.75 c -30.23,-17.09 -49.94,-49.94 -49.94,-85.45 0,-53.89 43.37,-98.54 98.54,-98.54 55.17,0 98.54,44.73 98.54,98.54 0,35.49 -21.02,68.36 -51.27,85.45 V 599.39 L 1729.7,742.66 1976.79,599.39 V 312.86 L 1780.96,199.85 v 195.83 l 2.69,2.59 v -0.03 0 -0.01 z"
   id="path14-3"
   style="fill:#25a8e0;fill-opacity:1" />&#10;   <path
   class="fil0"
   d="m 2029.38,2076.73 c -27.62,0 -49.94,-22.35 -49.94,-49.94 0,-27.55 22.35,-49.94 49.94,-49.94 27.55,0 49.94,22.35 49.94,49.94 0,27.55 -22.35,49.94 -49.94,49.94 z"
   id="path15-9"
   style="fill:#283d8d;fill-opacity:1" />&#10;   <path
   class="fil0"
   d="m 1435.29,2765.45 c -27.62,0 -49.94,-21.02 -49.94,-49.94 0,-28.92 22.35,-48.63 49.94,-48.63 27.55,0 49.94,21.02 49.94,48.63 0,27.62 -22.35,49.94 -49.94,49.94 z"
   id="path16-2"
   style="fill:#283d8d;fill-opacity:1" />&#10;   <path
   class="fil0"
   d="m 1732.36,2539.38 c -27.62,0 -49.94,-21.02 -49.94,-48.63 0,-27.62 22.35,-49.94 49.94,-49.94 27.55,0 49.94,22.35 49.94,49.94 0,27.55 -22.35,48.63 -49.94,48.63 z"
   id="path17-8"
   style="fill:#283d8d;fill-opacity:1" />&#10;   <path
   class="fil0"
   d="m 1682.38,2576.18 c -30.23,-17.09 -49.94,-49.94 -49.94,-85.45 0,-55.2 44.7,-99.9 98.54,-99.9 53.86,0 98.54,44.7 98.54,99.9 0,35.49 -19.73,68.34 -49.94,85.45 v 197.16 l 198.46,-115.65 V 2372.5 l -247.09,-143.27 -247.09,143.27 v 256.29 c 30.23,17.09 51.27,49.94 51.27,85.45 0,55.17 -44.7,99.9 -98.54,99.9 -53.86,0 -98.54,-44.7 -98.54,-99.9 0,-35.49 19.73,-68.34 49.94,-85.45 v -312.81 l 345.71,-201.1 297.06,170.89 247.09,-141.99 v -570.42 l -198.46,114.37 v 252.37 c 30.26,17.09 49.94,49.94 49.94,86.74 0,53.91 -44.7,98.54 -98.54,98.54 -53.86,0 -98.54,-44.7 -98.54,-98.54 0,-36.8 19.73,-69.64 49.94,-85.45 V 1744.23 L 1735.1,1886.22 745.4,1315.8 1042.46,1144.91 844,1029.26 0.1,1515.53 v 228.72 l 544.16,-312.81 989.7,570.42 -345.71,199.81 v 629.61 l 247.09,141.99 247.09,-141.99 v -253.66 -1.39 l -0.03,-0.01 -0.01,-0.03 z"
   id="path18-2"
   style="fill:#283d8d;fill-opacity:1" />&#10;  </g><g
       id="g1"
       transform="matrix(0.43580459,0,0,0.43580459,-8.413553,124.66169)"
       style="fill:#00ffff"><path
         class="fil1"
         d="m 325.35732,149.90132 c -2.23139,0 -4.15417,-0.43282 -5.75081,-1.30582 -0.61697,-0.33248 -1.1844,-0.71552 -1.70282,-1.1496 v 1.92608 h -3.96925 -4.14528 v -4.41071 -3.52781 -29.10789 h 8.11453 v 13.98042 h 0.17679 c 0.76682,-1.23444 1.81711,-2.19609 3.15722,-2.89281 1.33223,-0.68834 2.94665,-1.032 4.82498,-1.032 2.55778,0 4.73685,0.57302 6.52755,1.72009 1.79019,1.1463 3.15722,2.75158 4.10108,4.82422 0.94387,2.07264 1.41123,4.48107 1.41123,7.21538 0,2.70789 -0.48489,5.08939 -1.45517,7.1628 -0.97079,2.07264 -2.39954,3.69544 -4.27812,4.85114 -1.87909,1.16383 -4.21615,1.74625 -7.01269,1.74625 v 0 h 5.1e-4 z m -1.54355,-7.05663 c 2.09016,0 3.64312,-0.59995 4.65759,-1.80848 1.01397,-1.20828 1.51715,-2.84048 1.51715,-4.8956 0,-2.05511 -0.50318,-3.68681 -1.51715,-4.89509 -1.01447,-1.20904 -2.56717,-1.80822 -4.65759,-1.80822 -1.82576,0 -3.2634,0.50241 -4.32258,1.51714 -1.05841,1.01448 -1.5875,2.42519 -1.5875,4.21615 v 1.94005 c 0,1.79095 0.52959,3.19379 1.5875,4.20802 1.05868,1.01396 2.49657,1.52577 4.32258,1.52577 z"
         id="path19-3"
         style="clip-rule:evenodd;fill:#25a8e0;fill-rule:nonzero;stroke-width:0.0254;image-rendering:optimizeQuality;shape-rendering:geometricPrecision;text-rendering:geometricPrecision;fill-opacity:1" /><path
         class="fil2"
         d="m 244.73772,149.90132 c -2.91084,0 -5.44245,-0.56439 -7.58596,-1.70282 -2.14351,-1.12878 -3.80187,-2.73406 -4.95706,-4.8067 -1.16459,-2.07264 -1.74625,-4.51612 -1.74625,-7.33907 0,-2.8222 0.56438,-5.25704 1.7023,-7.30352 1.12878,-2.03759 2.74346,-3.61594 4.85115,-4.71856 2.09956,-1.10261 4.5781,-1.64973 7.42721,-1.64973 2.8222,0 5.24815,0.53848 7.2766,1.60528 2.0292,1.0762 3.58165,2.61087 4.65759,4.61315 1.06782,2.00228 1.60528,4.39293 1.60528,7.18896 v 2.60223 h -19.7137 c 0.32639,1.70231 1.032,2.98958 2.11709,3.8542 1.08433,0.87351 2.53162,1.30581 4.32181,1.30581 1.43764,0 2.56642,-0.22961 3.37846,-0.68834 0.80264,-0.45008 1.3843,-1.18211 1.73761,-2.17855 h 8.11479 c -0.556,2.88391 -2.00228,5.14172 -4.32257,6.76529 -2.31978,1.63144 -5.27456,2.45211 -8.86435,2.45211 v 0 z m -6.35076,-16.80337 h 11.81964 c -0.26492,-1.4732 -0.87325,-2.56642 -1.82575,-3.29032 -0.9619,-0.7145 -2.25832,-1.07569 -3.90805,-1.07569 -1.61391,0 -2.93725,0.37084 -3.96926,1.10262 -1.032,0.73177 -1.73761,1.826 -2.11658,3.26339 z"
         id="path20-5"
         style="clip-rule:evenodd;fill:#283d8d;fill-rule:nonzero;stroke-width:0.0254;image-rendering:optimizeQuality;shape-rendering:geometricPrecision;text-rendering:geometricPrecision;fill-opacity:1" /><path
         class="fil1"
         d="m 298.23368,149.37173 c -2.05511,0 -3.65176,-0.52096 -4.78079,-1.56998 -1.13766,-1.04089 -1.70231,-2.63728 -1.70231,-4.78079 v -13.75994 h -4.41071 v -6.35127 h 4.4986 v -7.93851 h 7.93851 v 7.93851 h 5.82118 v 6.35127 h -5.73329 v 13.75994 h 6.35076 v 6.35077 h -7.98271 v 0 h 2.5e-4 z"
         id="path21-9"
         style="clip-rule:evenodd;fill:#25a8e0;fill-rule:nonzero;stroke-width:0.0254;image-rendering:optimizeQuality;shape-rendering:geometricPrecision;text-rendering:geometricPrecision;fill-opacity:1" /><path
         class="fil1"
         d="m 279.71098,120.66084 c -1.20827,0 -2.23139,-0.42342 -3.08737,-1.27889 -0.85572,-0.85573 -1.27889,-1.8791 -1.27889,-3.08712 0,-1.20828 0.42342,-2.23139 1.27889,-3.08737 0.85573,-0.85572 1.8791,-1.27889 3.08737,-1.27889 1.20828,0 2.23139,0.42342 3.08712,1.27889 0.85598,0.85573 1.27889,1.87909 1.27889,3.08737 0,1.20828 -0.42291,2.23139 -1.27889,3.08712 -0.85573,0.85598 -1.87909,1.27889 -3.08712,1.27889 z"
         id="path22-5"
         style="clip-rule:evenodd;fill:#25a8e0;fill-rule:nonzero;stroke-width:0.0254;image-rendering:optimizeQuality;shape-rendering:geometricPrecision;text-rendering:geometricPrecision;fill-opacity:1" /><polygon
         class="fil1"
         points="6932.39,1047.29 6932.39,2089.1 6612.91,2089.1 6612.91,1047.29 "
         id="polygon22"
         style="clip-rule:evenodd;fill:#25a8e0;fill-rule:nonzero;image-rendering:optimizeQuality;shape-rendering:geometricPrecision;text-rendering:geometricPrecision;fill-opacity:1"
         transform="matrix(0.0254,0,0,0.0254,107.68542,96.308587)" /><path
         class="fil2"
         d="m 266.03918,120.66084 c -1.20828,0 -2.23139,-0.42342 -3.08712,-1.27889 -0.85572,-0.85573 -1.27889,-1.8791 -1.27889,-3.08712 0,-1.20828 0.42342,-2.23139 1.27889,-3.08737 0.85598,-0.85572 1.8791,-1.27889 3.08712,-1.27889 1.20828,0 2.23139,0.42342 3.08737,1.27889 0.85573,0.85573 1.27864,1.87909 1.27864,3.08737 0,1.20828 -0.42342,2.23139 -1.27864,3.08712 -0.85598,0.85598 -1.87909,1.27889 -3.08737,1.27889 z"
         id="path23-3"
         style="clip-rule:evenodd;fill:#283d8d;fill-rule:nonzero;stroke-width:0.0254;image-rendering:optimizeQuality;shape-rendering:geometricPrecision;text-rendering:geometricPrecision;fill-opacity:1" /><polygon
         class="fil2"
         points="6394.14,1047.29 6394.14,2089.1 6074.65,2089.1 6074.65,1047.29 "
         id="polygon23"
         style="clip-rule:evenodd;fill:#283d8d;fill-rule:nonzero;image-rendering:optimizeQuality;shape-rendering:geometricPrecision;text-rendering:geometricPrecision;fill-opacity:1"
         transform="matrix(0.0254,0,0,0.0254,107.68542,96.308587)" /><path
         class="fil2"
         d="m 220.17211,149.37173 c -2.05511,0 -3.65175,-0.52096 -4.78078,-1.56998 -1.13767,-1.04089 -1.70231,-2.63728 -1.70231,-4.78079 v -13.75994 h -4.41046 v -6.35127 h 4.4986 v -7.93851 h 7.93851 v 7.93851 h 5.82117 v 6.35127 h -5.73328 v 13.75994 h 6.35076 v 6.35077 h -7.98271 v 0 z"
         id="path24-2"
         style="clip-rule:evenodd;fill:#283d8d;fill-rule:nonzero;stroke-width:0.0254;image-rendering:optimizeQuality;shape-rendering:geometricPrecision;text-rendering:geometricPrecision;fill-opacity:1" /><path
         class="fil2"
         d="m 195.43099,149.90132 c -3.96926,0 -7.09219,-0.8382 -9.36727,-2.5141 -2.28473,-1.67589 -3.51129,-4.0137 -3.68731,-7.01217 h 7.80643 c 0.238,1.17271 0.80264,2.04571 1.70231,2.60146 0.89078,0.5555 2.19659,0.8382 3.89865,0.8382 2.64617,0 3.96925,-0.68808 3.96925,-2.07264 0,-0.556 -0.1938,-1.00584 -0.59055,-1.34975 -0.40589,-0.33503 -1.05867,-0.59131 -1.96723,-0.76734 l -5.91007,-1.14655 c -5.4069,-1.05867 -8.11454,-3.59029 -8.11454,-7.58597 0,-2.58394 1.0409,-4.65759 3.13157,-6.2009 2.09017,-1.5433 4.9657,-2.31114 8.64413,-2.31114 3.67792,0 6.57098,0.79375 8.68807,2.3815 2.11709,1.58775 3.26339,3.8194 3.43967,6.70357 h -7.80593 c -0.29134,-1.14656 -0.82017,-1.97587 -1.56159,-2.49606 -0.75819,-0.51181 -1.85217,-0.76759 -3.28981,-0.76759 -1.17323,0 -2.08128,0.15901 -2.70764,0.48514 -0.635,0.32639 -0.9525,0.81204 -0.9525,1.45568 0,0.46736 0.1938,0.86461 0.57302,1.19075 0.37948,0.32613 0.9525,0.5555 1.72009,0.70586 l 6.08584,1.19076 c 2.82296,0.55549 4.8956,1.47269 6.21894,2.73405 1.32283,1.26137 1.98475,2.97231 1.98475,5.11632 0,2.76022 -1.02336,4.92176 -3.06095,6.48259 -2.04623,1.56159 -4.99237,2.33782 -8.84657,2.33782 v 0 l -5.1e-4,5.1e-4 z"
         id="path25-8"
         style="clip-rule:evenodd;fill:#283d8d;fill-rule:nonzero;stroke-width:0.0254;image-rendering:optimizeQuality;shape-rendering:geometricPrecision;text-rendering:geometricPrecision;fill-opacity:1" /></g></g></svg>
